REM DIRINDEX 1\2,1\3,1\4
REM DIRNAME cjc151,folder01,folder02,folder03
TITLE ""
FILE "161 161_TOEFL_3900.mp3" MP3
  TRACK 01 AUDIO
    TITLE "2:cjc151_7013"
    INDEX 01 00:00:00
  TRACK 02 AUDIO
    TITLE "0:"
    INDEX 01 00:01:32
  TRACK 03 AUDIO
    TITLE "3:cjc151_7014"
    INDEX 01 00:03:12
  TRACK 04 AUDIO
    TITLE "0:"
    INDEX 01 00:07:54
  TRACK 05 AUDIO
    TITLE "2:cjc151_7015"
    INDEX 01 00:09:34
  TRACK 06 AUDIO
    TITLE "0:"
    INDEX 01 00:10:45
  TRACK 07 AUDIO
    TITLE "3:cjc151_7016"
    INDEX 01 00:12:18
  TRACK 08 AUDIO
    TITLE "0:"
    INDEX 01 00:16:26
  TRACK 09 AUDIO
    TITLE "2:cjc151_7017"
    INDEX 01 00:18:05
  TRACK 10 AUDIO
    TITLE "0:"
    INDEX 01 00:19:22
  TRACK 11 AUDIO
    TITLE "3:cjc151_7018"
    INDEX 01 00:21:02
  TRACK 12 AUDIO
    TITLE "0:"
    INDEX 01 00:24:74
  TRACK 13 AUDIO
    TITLE "2:cjc151_7019"
    INDEX 01 00:26:52
  TRACK 14 AUDIO
    TITLE "0:"
    INDEX 01 00:28:12
  TRACK 15 AUDIO
    TITLE "3:cjc151_7020"
    INDEX 01 00:29:66
  TRACK 16 AUDIO
    TITLE "0:"
    INDEX 01 00:33:38
  TRACK 17 AUDIO
    TITLE "2:cjc151_7021"
    INDEX 01 00:35:15
  TRACK 18 AUDIO
    TITLE "0:"
    INDEX 01 00:36:31
  TRACK 19 AUDIO
    TITLE "3:cjc151_7022"
    INDEX 01 00:38:08
  TRACK 20 AUDIO
    TITLE "0:"
    INDEX 01 00:42:02
  TRACK 21 AUDIO
    TITLE "2:cjc151_7023"
    INDEX 01 00:43:56
  TRACK 22 AUDIO
    TITLE "0:"
    INDEX 01 00:45:14
  TRACK 23 AUDIO
    TITLE "3:cjc151_7024"
    INDEX 01 00:46:66
  TRACK 24 AUDIO
    TITLE "0:"
    INDEX 01 00:50:64
  TRACK 25 AUDIO
    TITLE "2:cjc151_7025"
    INDEX 01 00:52:43
  TRACK 26 AUDIO
    TITLE "0:"
    INDEX 01 00:53:39
  TRACK 27 AUDIO
    TITLE "3:cjc151_7026"
    INDEX 01 00:55:16
  TRACK 28 AUDIO
    TITLE "0:"
    INDEX 01 00:58:58
  TRACK 29 AUDIO
    TITLE "2:cjc151_7027"
    INDEX 01 01:00:37
  TRACK 30 AUDIO
    TITLE "0:"
    INDEX 01 01:01:54
  TRACK 31 AUDIO
    TITLE "3:cjc151_7028"
    INDEX 01 01:03:31
  TRACK 32 AUDIO
    TITLE "0:"
    INDEX 01 01:07:63
  TRACK 33 AUDIO
    TITLE "2:cjc151_7029"
    INDEX 01 01:09:42
  TRACK 34 AUDIO
    TITLE "0:"
    INDEX 01 01:11:13
  TRACK 35 AUDIO
    TITLE "3:cjc151_7030"
    INDEX 01 01:12:66
  TRACK 36 AUDIO
    TITLE "0:"
    INDEX 01 01:17:39
  TRACK 37 AUDIO
    TITLE "2:cjc151_7031"
    INDEX 01 01:19:32
  TRACK 38 AUDIO
    TITLE "0:"
    INDEX 01 01:20:40
  TRACK 39 AUDIO
    TITLE "3:cjc151_7032"
    INDEX 01 01:22:31
  TRACK 40 AUDIO
    TITLE "0:"
    INDEX 01 01:26:29
  TRACK 41 AUDIO
    TITLE "2:cjc151_7033"
    INDEX 01 01:28:06
  TRACK 42 AUDIO
    TITLE "0:"
    INDEX 01 01:29:23
  TRACK 43 AUDIO
    TITLE "3:cjc151_7034"
    INDEX 01 01:31:00
  TRACK 44 AUDIO
    TITLE "0:"
    INDEX 01 01:35:16
  TRACK 45 AUDIO
    TITLE "2:cjc151_7035"
    INDEX 01 01:36:68
  TRACK 46 AUDIO
    TITLE "0:"
    INDEX 01 01:38:04
  TRACK 47 AUDIO
    TITLE "3:cjc151_7036"
    INDEX 01 01:39:59
  TRACK 48 AUDIO
    TITLE "0:"
    INDEX 01 01:43:60
  TRACK 49 AUDIO
    TITLE "2:cjc151_7037"
    INDEX 01 01:45:38
  TRACK 50 AUDIO
    TITLE "0:"
    INDEX 01 01:46:61
  TRACK 51 AUDIO
    TITLE "3:cjc151_7038"
    INDEX 01 01:48:48
  TRACK 52 AUDIO
    TITLE "0:"
    INDEX 01 01:52:42
  TRACK 53 AUDIO
    TITLE "2:cjc151_7039"
    INDEX 01 01:54:21
  TRACK 54 AUDIO
    TITLE "0:"
    INDEX 01 01:55:28
  TRACK 55 AUDIO
    TITLE "3:cjc151_7040"
    INDEX 01 01:57:00
  TRACK 56 AUDIO
    TITLE "0:"
    INDEX 01 02:00:00
  TRACK 57 AUDIO
    TITLE "2:cjc151_7041"
    INDEX 01 02:01:54
  TRACK 58 AUDIO
    TITLE "0:"
    INDEX 01 02:02:56
  TRACK 59 AUDIO
    TITLE "3:cjc151_7042"
    INDEX 01 02:04:37
  TRACK 60 AUDIO
    TITLE "0:"
    INDEX 01 02:08:54
  TRACK 61 AUDIO
    TITLE "2:cjc151_7043"
    INDEX 01 02:10:32
  TRACK 62 AUDIO
    TITLE "0:"
    INDEX 01 02:12:05
  TRACK 63 AUDIO
    TITLE "3:cjc151_7044"
    INDEX 01 02:13:59
  TRACK 64 AUDIO
    TITLE "0:"
    INDEX 01 02:18:59
  TRACK 65 AUDIO
    TITLE "2:cjc151_7045"
    INDEX 01 02:21:22
  TRACK 66 AUDIO
    TITLE "0:"
    INDEX 01 02:23:03
  TRACK 67 AUDIO
    TITLE "3:cjc151_7046"
    INDEX 01 02:24:59
  TRACK 68 AUDIO
    TITLE "0:"
    INDEX 01 02:29:33
  TRACK 69 AUDIO
    TITLE "2:cjc151_7047"
    INDEX 01 02:31:10
  TRACK 70 AUDIO
    TITLE "0:"
    INDEX 01 02:32:53
  TRACK 71 AUDIO
    TITLE "3:cjc151_7048"
    INDEX 01 02:34:32
  TRACK 72 AUDIO
    TITLE "0:"
    INDEX 01 02:39:06
  TRACK 73 AUDIO
    TITLE "2:cjc151_7049"
    INDEX 01 02:40:56
  TRACK 74 AUDIO
    TITLE "0:"
    INDEX 01 02:42:10
  TRACK 75 AUDIO
    TITLE "3:cjc151_7050"
    INDEX 01 02:43:63
  TRACK 76 AUDIO
    TITLE "0:"
    INDEX 01 02:47:31
  TRACK 77 AUDIO
    TITLE "2:cjc151_7051"
    INDEX 01 02:49:10
  TRACK 78 AUDIO
    TITLE "0:"
    INDEX 01 02:50:33
  TRACK 79 AUDIO
    TITLE "3:cjc151_7052"
    INDEX 01 02:52:12
  TRACK 80 AUDIO
    TITLE "0:"
    INDEX 01 02:56:24
  TRACK 81 AUDIO
    TITLE "2:cjc151_7053"
    INDEX 01 02:58:03
  TRACK 82 AUDIO
    TITLE "0:"
    INDEX 01 02:59:01
  TRACK 83 AUDIO
    TITLE "3:cjc151_7054"
    INDEX 01 03:00:53
  TRACK 84 AUDIO
    TITLE "0:"
    INDEX 01 03:04:35
  TRACK 85 AUDIO
    TITLE "2:cjc151_7055"
    INDEX 01 03:06:17
  TRACK 86 AUDIO
    TITLE "0:"
    INDEX 01 03:07:38
  TRACK 87 AUDIO
    TITLE "3:cjc151_7056"
    INDEX 01 03:09:17
  TRACK 88 AUDIO
    TITLE "0:"
    INDEX 01 03:13:50
